HIERARCHY
ROOT Hips
{
  OFFSET 263.056 91.6644 -274.608
  CHANNELS 6 Xposition Yposition Zposition Zrotation Xrotation Yrotation
  JOINT LeftUpLeg
  {
    OFFSET 8.64259 1.95398 -2.38835
    CHANNELS 3 Zrotation Xrotation Yrotation
    JOINT LeftLeg
    {
      OFFSET 43.7702 0 0
      CHANNELS 3 Zrotation Xrotation Yrotation
      JOINT LeftFoot
      {
        OFFSET 40.6238 0 0
        CHANNELS 3 Zrotation Xrotation Yrotation
        JOINT LeftToeBase
        {
          OFFSET 12.7242 0 0
          CHANNELS 3 Zrotation Xrotation Yrotation
          End Site
          {
            OFFSET 0 0 0
          }
        }
      }
    }
  }
  JOINT RightUpLeg
  {
    OFFSET -8.2249 1.95398 -2.59336
    CHANNELS 3 Zrotation Xrotation Yrotation
    JOINT RightLeg
    {
      OFFSET 43.5653 0 0
      CHANNELS 3 Zrotation Xrotation Yrotation
      JOINT RightFoot
      {
        OFFSET 40.6238 0 0
        CHANNELS 3 Zrotation Xrotation Yrotation
        JOINT RightToeBase
        {
          OFFSET 12.7242 0 0
          CHANNELS 3 Zrotation Xrotation Yrotation
          End Site
          {
            OFFSET 0 0 0
          }
        }
      }
    }
  }
  JOINT Spine
  {
    OFFSET 0.165834 0.87714 6.61349
    CHANNELS 3 Zrotation Xrotation Yrotation
    JOINT Spine1
    {
      OFFSET 7.38963 1.71661e-005 0
      CHANNELS 3 Zrotation Xrotation Yrotation
      JOINT Spine2
      {
        OFFSET 11.9445 1.14441e-005 0
        CHANNELS 3 Zrotation Xrotation Yrotation
        JOINT Spine3
        {
          OFFSET 14.7254 4.19617e-005 0
          CHANNELS 3 Zrotation Xrotation Yrotation
          JOINT Spine4
          {
            OFFSET 10.9679 0 0
            CHANNELS 3 Zrotation Xrotation Yrotation
            JOINT RightShoulder
            {
              OFFSET 2.46616 -1.6653 3.69651
              CHANNELS 3 Zrotation Xrotation Yrotation
              JOINT RightArm
              {
                OFFSET 13.0012 0 0
                CHANNELS 3 Zrotation Xrotation Yrotation
                JOINT RightForeArm
                {
                  OFFSET 28.7848 1.52588e-005 0
                  CHANNELS 3 Zrotation Xrotation Yrotation
                  JOINT RightHand
                  {
                    OFFSET 26.5688 1.52588e-005 0
                    CHANNELS 3 Zrotation Xrotation Yrotation
                    End Site
                    {
                      OFFSET 0 0 0
                    }
                  }
                }
              }
            }
            JOINT LeftShoulder
            {
              OFFSET 2.38034 -1.29275 -3.7523
              CHANNELS 3 Zrotation Xrotation Yrotation
              JOINT LeftArm
              {
                OFFSET 16.3182 6.10352e-005 0
                CHANNELS 3 Zrotation Xrotation Yrotation
                JOINT LeftForeArm
                {
                  OFFSET 27.0901 0 0
                  CHANNELS 3 Zrotation Xrotation Yrotation
                  JOINT LeftHand
                  {
                    OFFSET 24.5451 1.52588e-005 0
                    CHANNELS 3 Zrotation Xrotation Yrotation
                    End Site
                    {
                      OFFSET 0 0 0
                    }
                  }
                }
              }
            }
            JOINT Neck
            {
              OFFSET 5.0226 -0.0266342 0
              CHANNELS 3 Zrotation Xrotation Yrotation
              JOINT Head
              {
                OFFSET 6.69364 2.86102e-005 0
                CHANNELS 3 Zrotation Xrotation Yrotation
                End Site
                {
                  OFFSET 0 0 0
                }
              }
            }
          }
        }
      }
    }
  }
}
MOTION
Frames:	14
Frame Time:	0.0416667
-47.8669 21.3479 -61.0108 -8.412 -25.6605 39.8577 -167.33 -3.8125 90.7824 -8.08786 -2.25075 -1.18429 38.7532 -7.0463 3.06093 42.9461 27.9761 42.3477 131.889 65.9448 93.923 -102.873 3.25126 -1.60733 54.6792 0.12952 0.324432 52.8863 -0.526713 -13.4865 1.5934 7.57417 -91.5409 11.7533 2.44551 -3.32951 0.0801277 2.29669 -3.43381 -22.4529 3.33281 -2.44103 -2.44019 3.3328 -2.44102 88.8622 -26.3236 -110.619 -10.0967 -1.46165 -12.5898 -31.4473 29.4628 -127.583 -50.1684 -7.08655 12.2733 -80.8316 -18.1747 89.7325 -33.4838 -49.081 -47.099 35.0869 -12.3241 -130.79 21.7029 6.7267 26.8388 11.46 3.83745 16.2298 34.5009 -2.17599 -5.24691 
-46.8818 22.0616 -56.9679 -3.90175 -23.4483 42.0385 -167.181 -2.76596 93.9422 -8.21718 -0.708996 -1.2821 29.7044 -15.5215 -3.98094 34.5636 6.32967 38.7625 149.885 54.2304 76.6929 -90.4439 -7.00589 2.58053 58.1966 0.33634 0.439457 67.3372 -0.839362 -11.5409 1.51307 7.44401 -90.8775 12.0066 2.59443 -2.03061 0.336437 2.50258 -2.14283 -22.2142 3.08465 -1.15662 -2.20158 3.08466 -1.15663 95.4094 -10.3777 -102.35 9.23192 38.3535 -27.4655 -17.6761 5.02862 -128.331 -42.4582 -3.68064 6.27666 -82.5715 -19.1261 85.8374 -25.4258 -30.9971 -47.9134 44.652 -22.6398 -125.3 18.8353 6.11685 27.8941 13.9927 1.77998 11.5555 31.7138 -3.00596 -5.0623 
-44.4916 21.649 -51.1306 1.83405 -19.8159 47.8473 -163.906 -2.46147 100.375 -6.60843 3.10757 -0.689426 30.488 -14.0761 -3.27489 26.0304 -3.88266 4.79641 158.599 36.2373 71.7691 -68.986 6.80075 7.97903 71.1805 -3.56514 -1.87049 70.5571 0.95207 -5.4221 1.32416 7.40214 -90.4545 12.0815 2.41761 -1.17399 0.412194 2.3636 -1.27931 -22.1402 2.65861 -0.39269 -2.12755 2.65862 -0.392693 98.8277 3.85625 -98.6681 43.8629 56.1072 -57.1179 -10.611 -10.0018 -111.123 -32.7661 -1.73567 1.67691 -86.9539 -23.3106 77.2233 -13.08 -18.2837 -46.4891 51.7204 -30.2639 -120.083 13.5821 4.25514 25.9237 17.091 -1.04153 5.36572 28.7505 -3.69751 -3.92646 
-42.1514 21.0634 -45.1302 7.67866 -14.5577 53.1093 -161.157 6.46936 107.956 -22.0716 0.0474431 -1.81406 41.2379 -8.69371 1.56083 40.8919 12.7241 -6.42485 164.81 19.3437 72.6604 -44.6896 23.5433 8.27872 74.3364 -4.12705 -2.10028 73.097 0.59679 -6.52681 0.796189 7.39084 -89.8488 12.0935 1.65432 0.12202 0.423635 1.65807 0.0490607 -22.119 1.54113 0.613671 -2.10631 1.54111 0.61368 100.779 13.9711 -93.8419 59.5453 52.7232 -71.8383 -5.43812 -11.3394 -83.2885 -25.7821 -0.588826 -2.21823 -92.4492 -25.68 66.8007 -2.42573 -8.97875 -39.5885 56.6745 -36.4585 -116.836 15.8532 5.11887 27.208 19.7932 -4.24097 -1.4722 25.9551 -4.557 -3.69774 
-40.2932 20.8077 -38.185 11.6887 -4.20816 57.1427 -162.434 26.7981 113.804 -51.0296 9.92844 -3.50387 51.4728 -4.09208 7.75912 55.2662 25.5961 -9.5473 168.79 8.00308 78.8298 -27.3925 17.3857 3.04921 62.4231 -2.23701 -1.2726 74.0824 1.9142 -2.75465 0.278146 7.23348 -89.2023 12.3986 0.931806 1.48661 0.727173 0.996313 1.44418 -21.802 0.442009 1.69785 -1.78934 0.442011 1.69786 101.102 7.23509 -88.0898 65.7819 51.969 -71.5831 -5.51514 -9.67823 -90.1443 -27.7679 -0.817656 -1.47715 -100.405 -29.7806 54.0326 3.40038 -12.1394 -31.8497 54.0424 -39.4042 -120.876 20.0872 6.83563 29.5291 21.7919 -9.7493 -10.5625 24.4353 -5.89208 -0.246207 
-38.1346 19.851 -30.4256 17.1289 7.85451 58.6595 -164.932 47.9068 117.201 -78.7507 18.2683 -2.78738 57.805 2.21058 13.2601 55.4597 29.0774 -0.119619 172.127 -0.75955 83.7586 -14.9921 9.90905 -0.0558552 50.1796 -2.05667 -1.21498 59.7387 3.4017 13.0242 -0.85716 7.31487 -88.5647 12.2489 -1.02345 2.97991 0.574934 -0.891372 3.022 -21.9427 -1.87145 2.53503 -1.93002 -1.87147 2.53503 99.5211 -12.33 -89.3545 66.2861 58.9964 -70.0856 -14.7839 -8.90618 -111.413 -22.1203 -1.55376 3.82958 -102.754 -30.8895 50.5971 12.425 -3.72533 -28.5875 54.9862 -43.9364 -119.593 17.2548 5.94767 29.5486 19.9211 -13.4888 -15.959 24.4863 -8.00723 -0.128759 
-36.9296 17.6301 -22.8297 18.8496 13.79 58.3124 -157.984 68.1134 116.112 -98.0918 29.8222 -2.06333 59.9132 5.62724 16.451 57.4035 35.2306 9.10362 175.316 -4.32017 86.4083 -7.37167 3.17661 -0.903561 40.8627 -2.07237 -1.24671 29.3867 -1.39811 36.2674 -1.35766 7.10777 -87.9284 12.6757 -1.70804 4.3293 0.998447 -1.51602 4.40009 -21.5028 -2.92946 3.61724 -1.49013 -2.92947 3.61723 97.1942 -22.8169 -93.5514 67.1411 66.4256 -67.2964 -12.5315 -10.1565 -121.804 -19.0326 -1.28541 3.51531 -104.696 -31.9802 47.9798 18.9044 4.80847 -22.6457 58.1551 -48.8941 -117.214 16.9517 5.86367 29.6198 15.7301 -15.0534 -21.7919 27.1618 -8.08282 1.41893 
-36.4316 16.4163 -17.5642 21.6081 15.3829 54.2636 -129.506 78.7886 88.3905 -112.165 37.7388 0.198592 58.5407 4.73885 19.0602 58.1986 38.4727 13.4716 175.893 -5.30941 84.5416 -7.94017 -6.97521 -1.72736 35.7977 0.40246 1.10354 23.1021 -3.18613 24.2995 -1.71362 7.2573 -87.1718 12.3825 -2.06247 5.88791 0.699514 -1.80177 5.97258 -21.7667 -3.73464 4.99945 -1.75409 -3.73465 4.99944 96.2052 -25.5161 -95.223 64.4121 68.1225 -57.5555 -13.4171 -9.72208 -131.385 -20.5336 -1.37681 3.7816 -104.14 -32.5596 49.2638 19.9486 8.70701 -18.2604 48.2227 -50.4136 -126.097 20.418 6.82632 29.0499 15.1246 -15.6551 -23.7237 27.9032 -8.30327 1.33289 
-35.7182 16.5582 -15.2569 22.1936 11.3502 51.5404 -125.752 78.8653 84.4936 -114.304 36.5245 1.02193 55.2832 -0.495096 15.191 54.4401 36.4008 18.9994 175.795 -4.92147 83.0104 -11.3488 -10.1438 -3.07427 33.6981 2.19229 2.96199 16.7385 -3.42884 15.5711 -1.86419 7.3315 -86.7426 12.2311 -2.163 6.74304 0.544079 -1.86483 6.83113 -21.8958 -4.08643 5.78648 -1.88314 -4.08642 5.78649 95.9151 -22.7714 -96.539 62.1714 58.5882 -48.7197 -15.2807 -3.6553 -136.557 -21.1069 -2.19146 8.80843 -105.391 -35.3521 48.879 19.6488 9.56713 -7.53718 43.5664 -54.6008 -132.83 24.2269 7.31805 26.2609 15.4849 -13.8791 -21.3551 25.9911 -8.03311 -1.92557 
-34.3516 16.0072 -14.9191 18.5867 7.01003 52.5532 -133.383 76.7591 97.5256 -112.024 38.4355 0.342151 53.4025 -3.30132 12.4461 51.6493 34.0998 22.4551 176.459 -4.01328 83.4891 -10.2496 -5.12693 -3.0741 29.132 2.68127 3.92413 15.2895 -3.21698 13.0537 -1.60202 7.04554 -86.9676 12.7934 -1.73091 6.26909 1.10812 -1.45389 6.33878 -21.339 -3.5324 5.46309 -1.32634 -3.5324 5.46311 95.67 -22.7563 -97.1039 54.2371 44.232 -42.4198 -19.4477 6.20657 -138.377 -22.1194 -2.69831 11.4274 -107.608 -37.9976 46.9346 16.3851 2.46127 4.44018 36.0802 -54.2128 -142.914 23.0784 6.63094 24.7401 15.5636 -11.8629 -22.6563 25.7206 -5.22479 -0.0693547 
-31.9432 16.4906 -15.9763 19.5135 8.20824 54.1515 -141.37 71.0037 102.927 -105.826 40.2829 -1.99606 55.2736 -0.0865804 14.1246 53.3074 37.9328 24.743 174.836 -4.75874 84.906 -8.00671 3.61622 -1.94068 28.8633 2.34952 3.58165 6.83531 -1.75286 1.51574 -1.68773 7.12501 -87.6636 12.6525 -2.23734 4.9307 0.973756 -2.01843 5.02408 -21.5228 -3.61472 4.03248 -1.51016 -3.61471 4.03246 95.8883 -22.9274 -96.5605 48.4068 37.1294 -42.1075 -24.4187 12.1441 -136.693 -23.8066 -3.43657 14.5826 -103.887 -37.7232 52.636 12.5063 -1.29558 7.22925 32.5443 -47.1247 -145.057 28.6307 8.00855 24.4009 12.3157 -10.7207 -24.351 28.9826 -3.47709 2.6993 
-29.1122 18.5134 -17.3843 20.7031 6.44432 55.2957 -148.816 59.97 107.721 -92.7077 39.936 -5.6459 57.9865 3.57726 15.1392 53.381 41.5776 30.235 173.48 -5.29183 84.6754 -7.91517 10.882 -0.857524 28.9463 1.81204 2.99461 -0.874793 -2.10902 0.573108 -1.6115 7.34916 -88.7424 12.2092 -2.60741 2.7988 0.537653 -2.48175 2.91077 -22.0062 -3.3279 1.88574 -1.99358 -3.32788 1.88572 96.536 -21.0162 -95.5432 37.3104 19.9942 -45.1085 -34.5934 22.9422 -129.106 -25.2433 -3.98982 16.5975 -95.7845 -32.0318 63.4547 16.0712 -31.6264 0.10835 23.7436 -25.0897 -148.974 34.6527 9.0433 22.4579 13.3029 -8.21155 -17.5489 31.0391 -2.46372 2.72844 
-25.7192 20.8062 -18.3977 19.1095 2.00041 53.6958 -150.345 46.1515 106.49 -74.8735 37.2337 -10.5584 59.2285 5.54489 17.0413 54.3225 44.5808 32.1269 171.776 -1.76927 80.8418 -13.7068 13.8034 -0.615333 33.3446 1.28131 2.13847 3.28386 -2.24652 2.13214 -1.38824 7.4384 -89.6973 12.0098 -2.61736 0.888878 0.341056 -2.57568 1.00326 -22.2152 -2.76341 0.0606019 -2.20254 -2.7634 0.0605769 95.5124 -19.539 -98.412 24.4264 6.79938 -50.6458 -47.7477 30.5423 -117.978 -24.4645 -4.57366 20.8205 -88.2666 -20.4532 73.3006 9.81478 -61.4889 -19.8979 19.3581 -1.7285 -136.841 35.5038 7.41638 17.2764 15.3179 -5.84384 -7.44627 30.9396 -3.18008 1.03955 
-21.4458 22.5685 -18.2433 13.5417 -4.5751 49.4078 -151.445 32.4055 103.366 -56.0985 33.1999 -15.3207 60.0573 4.67222 13.5029 51.8307 49.6317 43.499 169.302 9.19477 74.5024 -26.6142 12.6851 -0.203254 38.2205 2.54315 2.98466 14.3265 -1.61389 3.78304 -0.768909 7.45678 -90.248 11.9582 -1.6457 -0.315328 0.288298 -1.658 -0.24257 -22.2533 -1.47484 -0.795441 -2.24067 -1.47484 -0.795435 92.5092 -22.7088 -104.307 8.83739 -0.526588 -52.9894 -57.356 35.6384 -107.783 -17.7695 -3.14623 20.1977 -82.9315 -9.06864 82.1934 -5.20219 -65.5691 -49.7971 19.9613 0.915263 -103.416 32.6621 5.39434 12.993 21.1584 -3.06175 -0.0972252 27.7215 -2.62992 0.800302 
